<svg width="16" height="16" viewBox="0 0 16 16" fill="none" xmlns="http://www.w3.org/2000/svg">
<path d="M3.50129 10.7474C3.96575 10.7474 4.4112 10.9319 4.73963 11.2604C5.06806 11.5888 5.25257 12.0342 5.25257 12.4987C5.25257 13.4467 4.4653 14.25 3.50129 14.25C2.55334 14.25 1.75 13.4467 1.75 12.4987C1.75 12.0342 1.93451 11.5888 2.26294 11.2604C2.59137 10.9319 3.03682 10.7474 3.50129 10.7474ZM1.75 1.95C1.75 1.83954 1.83964 1.74983 1.95008 1.7516C5.1929 1.80345 8.29183 3.11416 10.5888 5.41116C12.8858 7.70817 14.1965 10.8071 14.2484 14.0499C14.2502 14.1604 14.1605 14.25 14.05 14.25H12.1765C12.0661 14.25 11.9767 14.1604 11.9746 14.05C11.9497 12.7752 11.6865 11.5156 11.1981 10.3365C10.6842 9.09573 9.93088 7.96836 8.98126 7.01874C8.03164 6.06912 6.90427 5.31584 5.66353 4.80191C4.48441 4.3135 3.22484 4.05035 1.95 4.02541C1.83956 4.02325 1.75 3.93391 1.75 3.82346V1.95ZM1.75 6.49692C1.75 6.38646 1.83956 6.29665 1.94999 6.29943C3.9868 6.35061 5.92939 7.18203 7.37368 8.62632C8.81797 10.0706 9.64939 12.0132 9.70057 14.05C9.70335 14.1604 9.61354 14.25 9.50308 14.25H7.62963C7.51917 14.25 7.42999 14.1604 7.42611 14.05C7.37564 12.6163 6.78401 11.2518 5.7661 10.2339C4.7482 9.21599 3.38371 8.62436 1.95 8.57389C1.83961 8.57001 1.75 8.48083 1.75 8.37037V6.49692Z" fill="black"/>
</svg>
