<svg width="16" height="16" viewBox="0 0 16 16" fill="none" xmlns="http://www.w3.org/2000/svg">
<path d="M4.22986 15.6707H11.7701C12.5301 15.6707 13.1059 15.4724 13.4977 15.0759C13.8894 14.6842 14.0853 14.106 14.0853 13.3413V6.9126C14.0853 6.58219 14.0641 6.30135 14.0216 6.07007C13.9838 5.83879 13.9107 5.62874 13.8021 5.43994C13.6983 5.24642 13.5425 5.04346 13.3348 4.83105L9.63904 1.07861C9.43608 0.875651 9.24019 0.719889 9.05139 0.611328C8.86259 0.502767 8.65491 0.429606 8.42834 0.391846C8.2065 0.349365 7.9469 0.328125 7.64954 0.328125H4.22986C3.46521 0.328125 2.887 0.526367 2.49524 0.922852C2.10819 1.31934 1.91467 1.89754 1.91467 2.65747V13.3413C1.91467 14.106 2.10819 14.6842 2.49524 15.0759C2.887 15.4724 3.46521 15.6707 4.22986 15.6707ZM4.34314 14.2476C4.00802 14.2476 3.75549 14.1602 3.58557 13.9856C3.41565 13.8157 3.33069 13.5679 3.33069 13.2422V2.75659C3.33069 2.43563 3.41565 2.18783 3.58557 2.01318C3.75549 1.83382 4.01038 1.74414 4.35022 1.74414H7.35217V5.5957C7.35217 6.11019 7.47725 6.49251 7.72742 6.74268C7.9823 6.99284 8.36462 7.11792 8.87439 7.11792H12.6693V13.2422C12.6693 13.5679 12.5844 13.8157 12.4144 13.9856C12.2445 14.1602 11.9896 14.2476 11.6498 14.2476H4.34314ZM9.00891 5.87891C8.86259 5.87891 8.75639 5.84587 8.69031 5.77979C8.62423 5.7137 8.59119 5.6075 8.59119 5.46118V1.92822L12.4781 5.87891H9.00891Z" fill="black"/>
</svg>
