<svg width="1em" height="1em" viewBox="0 0 16 16" fill="none" xmlns="http://www.w3.org/2000/svg"><g><path d="M6.379 14.79c.417 0 .74-.175.969-.524L14.69 2.844c.079-.13.136-.25.172-.36a.981.981 0 0 0 .063-.336c0-.276-.089-.5-.266-.671a.93.93 0 0 0-.687-.266.943.943 0 0 0-.493.117c-.13.078-.252.208-.367.39L6.348 12.454 2.87 8c-.224-.292-.497-.438-.82-.438a.968.968 0 0 0-.703.274.923.923 0 0 0-.274.68c0 .125.021.247.063.367.047.114.122.232.226.351l4.047 5.047c.271.339.594.508.969.508z" fill="#000"/></g></svg>