<svg width="1em" height="1em" fill="none" xmlns="http://www.w3.org/2000/svg"><path d="M3.425 14.454c.185 0 .422-.044.712-.133.293-.084.609-.199.947-.343.341-.145.68-.31 1.013-.495.338-.185.643-.374.917-.567.06-.04.114-.07.163-.09a.455.455 0 0 1 .144-.025c.04.004.079.006.115.006.036.004.07.006.103.006.868 0 1.682-.09 2.442-.271a8.37 8.37 0 0 0 2.063-.772 6.313 6.313 0 0 0 1.587-1.2c.442-.467.78-.984 1.013-1.55A4.746 4.746 0 0 0 15 7.18c0-.78-.181-1.51-.543-2.19A5.702 5.702 0 0 0 12.961 3.2a7.192 7.192 0 0 0-2.232-1.213 8.281 8.281 0 0 0-2.726-.44 8.3 8.3 0 0 0-2.732.44A7.284 7.284 0 0 0 3.039 3.2 5.777 5.777 0 0 0 1.537 4.99 4.63 4.63 0 0 0 1 7.18c0 .647.125 1.266.374 1.857.25.592.61 1.132 1.08 1.623.47.49 1.035.913 1.695 1.267.056.032.09.07.102.114.016.045.01.095-.018.151a5.724 5.724 0 0 1-.404.591c-.153.197-.3.38-.44.55-.141.168-.252.305-.332.41-.133.168-.165.33-.097.482.069.153.224.23.465.23z" fill="#000"/></svg>