<svg width="1em" height="1em" viewBox="0 0 20 20" fill="none" xmlns="http://www.w3.org/2000/svg"><g fill="#000"><path d="M9.39 5.147a.826.826 0 0 1 .595-.224.78.78 0 0 1 .577.224c.156.15.234.342.234.577v4.716l-.078 2.032.928-1.143 1.113-1.143a.689.689 0 0 1 .556-.244c.222 0 .404.075.547.225.15.143.225.322.225.537a.774.774 0 0 1-.215.557l-3.242 3.262c-.202.201-.417.302-.645.302-.228 0-.442-.1-.644-.302L6.099 11.26a.753.753 0 0 1-.215-.557c0-.215.071-.394.215-.537a.724.724 0 0 1 .546-.225c.222 0 .407.082.557.245l1.123 1.152.918 1.123-.078-2.022V5.724a.78.78 0 0 1 .225-.577z"/><path d="M17.925 2.124a3.501 3.501 0 0 0-1.807-.977c-.69-.15-1.484-.224-2.383-.224h-7.49c-.885 0-1.676.075-2.373.224-.69.144-1.289.47-1.797.977A3.484 3.484 0 0 0 1.1 3.901C.955 4.591.884 5.38.884 6.265v7.441c0 .899.071 1.696.215 2.393.15.69.475 1.282.976 1.777a3.498 3.498 0 0 0 1.797.976c.697.15 1.49.225 2.383.225h7.48c.899 0 1.696-.075 2.393-.225a3.448 3.448 0 0 0 1.797-.976 3.422 3.422 0 0 0 .967-1.777c.15-.697.224-1.495.224-2.393V6.294c0-.898-.075-1.693-.224-2.383a3.425 3.425 0 0 0-.967-1.787zm-.762 3.897v7.949c0 .514-.046.99-.137 1.425-.09.43-.27.782-.537 1.055-.267.267-.622.446-1.064.537a6.918 6.918 0 0 1-1.416.137H5.99c-.508 0-.983-.046-1.426-.137-.436-.09-.79-.27-1.064-.537-.267-.273-.446-.625-.537-1.054a7.495 7.495 0 0 1-.127-1.426V6.04c0-.52.042-1 .127-1.436.091-.436.27-.787.537-1.054.267-.274.622-.453 1.064-.537.45-.091.935-.137 1.456-.137h7.988c.508 0 .98.046 1.416.137.442.09.797.27 1.064.537.274.267.453.618.537 1.054.091.437.137.909.137 1.417z"/></g></svg>