<svg width="17" height="16" viewBox="0 0 17 16" fill="none" xmlns="http://www.w3.org/2000/svg">
<path d="M8.45312 3.98828C8.26042 3.98828 8.10156 4.04818 7.97656 4.16797C7.85677 4.28776 7.79688 4.44141 7.79688 4.62891V8.40234L7.85938 10.0195L7.125 9.12109L6.22656 8.19922C6.10677 8.06901 5.95833 8.00391 5.78125 8.00391C5.60417 8.00391 5.45833 8.0638 5.34375 8.18359C5.22917 8.29818 5.17188 8.44141 5.17188 8.61328C5.17188 8.79557 5.22917 8.94401 5.34375 9.05859L7.9375 11.668C8.09896 11.8294 8.27083 11.9102 8.45312 11.9102C8.63542 11.9102 8.80729 11.8294 8.96875 11.668L11.5625 9.05859C11.6771 8.9388 11.7344 8.79037 11.7344 8.61328C11.7344 8.44141 11.6745 8.29818 11.5547 8.18359C11.4401 8.0638 11.2943 8.00391 11.1172 8.00391C10.9297 8.00391 10.7812 8.06901 10.6719 8.19922L9.78125 9.11328L9.03906 10.0273L9.10156 8.40234V4.62891C9.10156 4.44141 9.03906 4.28776 8.91406 4.16797C8.79427 4.04818 8.64062 3.98828 8.45312 3.98828Z" fill="black"/>
<path fill-rule="evenodd" clip-rule="evenodd" d="M13.332 0.917969C13.8893 1.03255 14.3711 1.29297 14.7773 1.69922C15.1784 2.09505 15.4362 2.57161 15.5508 3.12891C15.6706 3.68099 15.7305 4.31641 15.7305 5.03516V10.9648C15.7305 11.6836 15.6706 12.3216 15.5508 12.8789C15.4362 13.431 15.1784 13.9049 14.7773 14.3008C14.3763 14.707 13.8971 14.9674 13.3398 15.082C12.7826 15.2018 12.1445 15.2617 11.4258 15.2617H5.44141C4.72786 15.2617 4.09245 15.2018 3.53516 15.082C2.98307 14.9674 2.50391 14.707 2.09766 14.3008C1.69661 13.9049 1.4362 13.431 1.31641 12.8789C1.20182 12.3216 1.14453 11.6836 1.14453 10.9648V5.01172C1.14453 4.30339 1.20182 3.67318 1.31641 3.12109C1.4362 2.56901 1.69661 2.09505 2.09766 1.69922C2.50391 1.29297 2.98307 1.03255 3.53516 0.917969C4.09245 0.798177 4.72526 0.738281 5.43359 0.738281H11.4258C12.1445 0.738281 12.7799 0.798177 13.332 0.917969ZM14.168 11.1758V4.81641C14.168 4.41016 14.1315 4.03255 14.0586 3.68359C13.9909 3.33464 13.8477 3.05339 13.6289 2.83984C13.4154 2.6263 13.1315 2.48307 12.7773 2.41016C12.4284 2.33724 12.0508 2.30078 11.6445 2.30078H5.25391C4.83724 2.30078 4.44922 2.33724 4.08984 2.41016C3.73568 2.47786 3.45182 2.62109 3.23828 2.83984C3.02474 3.05339 2.88151 3.33464 2.80859 3.68359C2.74089 4.03255 2.70703 4.41536 2.70703 4.83203V11.1758C2.70703 11.5872 2.74089 11.9674 2.80859 12.3164C2.88151 12.6602 3.02474 12.9414 3.23828 13.1602C3.45703 13.3737 3.74089 13.5169 4.08984 13.5898C4.44401 13.6628 4.82422 13.6992 5.23047 13.6992H11.6445C12.0508 13.6992 12.4284 13.6628 12.7773 13.5898C13.1315 13.5169 13.4154 13.3737 13.6289 13.1602C13.8424 12.9414 13.9857 12.6602 14.0586 12.3164C14.1315 11.9674 14.168 11.5872 14.168 11.1758Z" fill="black"/>
</svg>
