<svg width="1em" height="1em" viewBox="0 0 20 20" fill="none" xmlns="http://www.w3.org/2000/svg"><path d="M16.86 17.782H3.305c-.916 0-1.612-.239-2.089-.716C.738 16.596.5 15.904.5 14.995V4.973c0-.9.23-1.582.69-2.048.461-.471 1.097-.707 1.908-.707h2.31c.302 0 .56.022.773.066.22.038.42.104.6.197.181.094.373.22.576.379l.444.353c.246.197.477.337.69.42.22.076.483.115.79.115h7.415c.91 0 1.604.238 2.08.715.483.477.724 1.165.724 2.063v8.469c0 .91-.233 1.6-.699 2.071-.466.477-1.112.716-1.94.716zM2.663 15.628c.187.18.458.271.814.271h13.048c.35 0 .62-.09.805-.271.192-.181.288-.458.288-.83V8.82H2.383v5.977c0 .373.093.65.28.83zm-.28-8.395h15.235v-.501c0-.373-.096-.65-.288-.83-.186-.181-.454-.272-.805-.272H8.77c-.302 0-.562-.019-.781-.057a2.425 2.425 0 0 1-.6-.206 3.676 3.676 0 0 1-.576-.378l-.436-.362a2.48 2.48 0 0 0-.69-.41 2.156 2.156 0 0 0-.773-.124H3.468c-.345 0-.614.093-.806.28-.186.186-.28.452-.28.797v2.063z" fill="#000"/></svg>