<svg width="1em" height="1em" viewBox="0 0 16 16" fill="none" xmlns="http://www.w3.org/2000/svg"><g><path d="M13.073 9.654a.793.793 0 1 1-1.12-1.12l.56-.561a3.172 3.172 0 0 0-4.486-4.486l-.56.56a.793.793 0 0 1-1.121-1.12l.56-.56a4.757 4.757 0 0 1 6.728 6.727l-.56.56zM9.71 11.897c.31.31.31.812 0 1.121l-.56.561A4.758 4.758 0 1 1 2.42 6.851l.56-.56a.793.793 0 0 1 1.122 1.121l-.561.56a3.172 3.172 0 1 0 4.485 4.486l.561-.56a.793.793 0 0 1 1.121 0zm0-6.728a.793.793 0 1 1 1.122 1.122l-4.485 4.484a.793.793 0 0 1-1.122-1.121L9.71 5.169z" fill="#000"/></g></svg>