<svg width="1em" height="1em" viewBox="0 0 16 16" fill="none" xmlns="http://www.w3.org/2000/svg"><g><path d="M4.889 2.794c0-.43.348-.777.778-.777h8.555a.778.778 0 1 1 0 1.555H5.667a.778.778 0 0 1-.778-.778zM2.167 3.961a1.167 1.167 0 1 1 0-2.333 1.167 1.167 0 0 1 0 2.333zm0 5.245a1.167 1.167 0 1 1 0-2.334 1.167 1.167 0 0 1 0 2.334zm0 5.166a1.167 1.167 0 1 1 0-2.333 1.167 1.167 0 0 1 0 2.333zM4.889 8.04c0-.43.348-.778.778-.778h8.555a.778.778 0 1 1 0 1.556H5.667a.778.778 0 0 1-.778-.778zm0 5.244c0-.43.348-.777.778-.777h8.555a.778.778 0 1 1 0 1.555H5.667a.778.778 0 0 1-.778-.778z" fill="#000"/></g></svg>