<?xml version="1.0" standalone="no"?>
<!DOCTYPE svg PUBLIC "-//W3C//DTD SVG 20010904//EN"
 "http://www.w3.org/TR/2001/REC-SVG-20010904/DTD/svg10.dtd">
<svg version="1.0" xmlns="http://www.w3.org/2000/svg"
 width="700.000000pt" height="700.000000pt" viewBox="0 0 700.000000 700.000000"
 preserveAspectRatio="xMidYMid meet">
<metadata>
Created by potrace 1.11, written by Peter Selinger 2001-2013
</metadata>
<g transform="translate(0.000000,700.000000) scale(0.100000,-0.100000)"
fill="#000000" stroke="none">
<path d="M466 4139 l-26 -20 0 -669 0 -669 22 -21 c21 -19 33 -20 464 -20 526
0 487 -9 492 119 5 93 -7 133 -44 150 -17 7 -127 11 -339 11 l-315 0 0 545 0
546 -25 24 c-22 23 -32 25 -113 25 -75 0 -93 -3 -116 -21z"/>
<path d="M1552 4150 c-12 -5 -27 -21 -32 -36 -7 -17 -9 -259 -8 -681 l3 -655
24 -19 c19 -16 40 -19 113 -19 49 0 98 4 108 10 33 18 40 66 40 276 l0 204
168 0 167 0 145 -231 c80 -127 154 -238 165 -245 13 -10 51 -14 123 -14 97 0
104 1 129 26 19 19 24 32 20 53 -3 16 -70 126 -149 246 -114 175 -140 220
-128 227 8 5 40 23 70 41 119 70 180 192 180 357 0 188 -81 329 -235 408 -104
53 -124 55 -515 58 -217 2 -374 0 -388 -6z m772 -304 c64 -37 90 -93 84 -179
-4 -56 -8 -63 -46 -98 -59 -52 -100 -59 -346 -59 l-216 0 0 186 0 185 238 -3
237 -3 49 -29z"/>
<path d="M2893 4149 c-12 -6 -26 -23 -33 -38 -7 -18 -10 -224 -8 -679 l3 -654
24 -19 c22 -18 43 -19 335 -19 357 0 404 7 535 71 148 73 282 230 332 389 48
154 48 353 -1 500 -66 199 -228 362 -423 427 -82 27 -83 27 -412 30 -225 2
-337 -1 -352 -8z m694 -291 c42 -15 75 -38 119 -82 92 -93 126 -181 125 -332
0 -194 -93 -346 -247 -403 -48 -19 -77 -21 -249 -21 l-195 0 0 430 0 430 195
0 c175 0 200 -2 252 -22z"/>
<path d="M4706 4139 l-26 -20 0 -669 0 -669 22 -21 c19 -17 35 -20 115 -20 86
0 96 2 118 25 l25 24 0 661 0 661 -25 24 c-22 23 -32 25 -113 25 -75 0 -93 -3
-116 -21z"/>
<path d="M5205 4135 l-25 -24 0 -661 0 -661 25 -24 c22 -23 31 -25 117 -25
146 1 132 -48 138 480 l5 448 178 -224 c99 -124 190 -232 203 -240 14 -10 34
-14 47 -10 15 3 85 85 203 236 l179 230 5 -441 5 -441 24 -19 c19 -16 40 -19
115 -19 79 0 95 3 114 20 l22 21 0 669 0 669 -26 20 c-23 18 -41 21 -121 21
-52 0 -103 -5 -114 -11 -11 -6 -110 -132 -221 -280 -162 -218 -203 -268 -213
-257 -7 7 -101 131 -209 274 -124 165 -205 264 -219 268 -12 3 -64 6 -115 6
-85 0 -95 -2 -117 -25z"/>
<path d="M4221 3044 c-19 -24 -21 -40 -21 -144 0 -162 2 -164 148 -168 104 -4
110 -3 138 21 l29 25 0 127 c0 165 0 165 -160 165 -111 0 -114 -1 -134 -26z"/>
</g>
</svg>
