<?xml version="1.0" encoding="UTF-8"?>
<svg width="174px" height="80px" viewBox="0 0 174 80" version="1.1" xmlns="http://www.w3.org/2000/svg" xmlns:xlink="http://www.w3.org/1999/xlink">
    <!-- Generator: Sketch 58 (84663) - https://sketch.com -->
    <title>Slice</title>
    <desc>Created with Sketch.</desc>
    <g id="Page-1" stroke="none" stroke-width="1" fill="none" fill-rule="evenodd">
        <g id="logo">
            <rect id="BG" x="0" y="0" width="174" height="80"></rect>
            <path d="M37.0918037,50.4715447 C37.5386662,50.4715447 37.911046,50.6280472 38.2089544,50.9410569 C38.5068627,51.2540666 38.6558146,51.6192391 38.6558146,52.0365854 L38.6558146,55.2560976 C38.6558146,55.6734438 38.5068627,56.0386163 38.2089544,56.351626 C37.911046,56.6646357 37.5386662,56.8211382 37.0918037,56.8211382 L17.5640109,56.8211382 C17.1469392,56.8211382 16.782007,56.6646357 16.4692033,56.351626 C16.1563995,56.0386163 16,55.6734438 16,55.2560976 L16,25.5650407 C16,25.1476944 16.1563995,24.7825219 16.4692033,24.4695122 C16.782007,24.1565025 17.1469392,24 17.5640109,24 L20.9154627,24 C21.3325344,24 21.6974666,24.1565025 22.0102703,24.4695122 C22.3230741,24.7825219 22.4794736,25.1476944 22.4794736,25.5650407 L22.4794736,50.4715447 L37.0918037,50.4715447 Z M68.6645115,54.4065041 C68.9922107,54.9132817 69.0071059,55.4498617 68.7091975,56.0162602 C68.4112892,56.5528482 67.9644334,56.8211382 67.3686168,56.8211382 L63.3468746,56.8211382 C62.7808487,56.8211382 62.3488882,56.5826582 62.0509798,56.1056911 L55.3480761,45.4186992 L47.4386497,45.4186992 L47.4386497,55.2560976 C47.4386497,55.6734438 47.2822502,56.0386163 46.9694464,56.351626 C46.6566427,56.6646357 46.2917105,56.8211382 45.8746388,56.8211382 L42.523187,56.8211382 C42.1061153,56.8211382 41.7411831,56.6646357 41.4283793,56.351626 C41.1155756,56.0386163 40.9591761,55.6734438 40.9591761,55.2560976 L40.9591761,25.5650407 C40.9591761,25.1476944 41.1155756,24.7825219 41.4283793,24.4695122 C41.7411831,24.1565025 42.1061153,24 42.523187,24 L56.7333429,24 C60.1592886,24 62.9297944,24.968825 65.0449435,26.9065041 C67.1898834,28.8739936 68.2623373,31.5270836 68.2623373,34.8658537 C68.2623373,37.0122059 67.7931387,38.8529734 66.8547275,40.3882114 C65.9163163,41.9234494 64.538511,43.0785869 62.7212702,43.8536585 C62.6021069,43.9132794 62.4829453,43.9654469 62.363782,44.0101626 C62.2446187,44.0548783 62.1254571,44.1070458 62.0062938,44.1666667 L68.6645115,54.4065041 Z M47.4386497,39.1138211 L56.1524245,39.1138211 C58.7144361,39.1138211 60.4571737,38.3834761 61.3806895,36.9227642 C61.6785978,36.3861762 61.8275497,35.7005462 61.8275497,34.8658537 C61.8275497,33.4647626 61.3657987,32.3617926 60.4422829,31.5569106 C59.4293946,30.722218 58.0590369,30.304878 56.3311686,30.304878 L47.4386497,30.304878 L47.4386497,39.1138211 Z M91.7915606,25.1178862 C93.6385922,25.8929578 95.2621682,26.9959278 96.6623373,28.4268293 C99.7605838,31.5867367 101.309684,35.5812767 101.309684,40.4105691 C101.309684,45.2398615 99.7605838,49.2344015 96.6623373,52.3943089 C95.2621682,53.8252104 93.6385922,54.9281804 91.7915606,55.703252 C90.0041106,56.4485132 88.1124212,56.8211382 86.1164354,56.8211382 L73.6043484,56.8211382 C73.1872768,56.8211382 72.8223446,56.6646357 72.5095408,56.351626 C72.1967371,56.0386163 72.0403376,55.6734438 72.0403376,55.2560976 L72.0403376,25.5650407 C72.0403376,25.1476944 72.1967371,24.7825219 72.5095408,24.4695122 C72.8223446,24.1565025 73.1872768,24 73.6043484,24 L86.1164354,24 C87.0995329,24 88.0677204,24.0968825 89.021027,24.2906504 C89.9743337,24.4844183 90.8978356,24.7601608 91.7915606,25.1178862 Z M78.5198112,50.5162602 L85.9823773,50.5162602 C88.6039706,50.5162602 90.7339831,49.5474352 92.3724789,47.6097561 C94.0109747,45.7018875 94.8302103,43.3021825 94.8302103,40.4105691 C94.8302103,37.5189557 94.0109747,35.1192507 92.3724789,33.2113821 C90.7339831,31.273703 88.6039706,30.304878 85.9823773,30.304878 L78.5198112,30.304878 L78.5198112,50.5162602 Z M108.930682,49.2195122 C109.347754,49.2195122 109.712686,49.3685622 110.02549,49.6666667 C110.338294,49.9647711 110.494693,50.3373961 110.494693,50.7845528 L110.494693,55.4349593 C110.494693,55.8523056 110.338294,56.2174781 110.02549,56.5304878 C109.712686,56.8434975 109.347754,57 108.930682,57 L104.864254,57 C104.417392,57 104.045012,56.8434975 103.747103,56.5304878 C103.449195,56.2174781 103.300243,55.8523056 103.300243,55.4349593 L103.300243,50.7845528 C103.300243,50.3373961 103.449195,49.9647711 103.747103,49.6666667 C104.045012,49.3685622 104.417392,49.2195122 104.864254,49.2195122 L108.930682,49.2195122 Z M119.232842,24 C119.649914,24 120.014846,24.1565025 120.32765,24.4695122 C120.640454,24.7825219 120.796853,25.1476944 120.796853,25.5650407 L120.796853,55.2560976 C120.796853,55.6734438 120.640454,56.0386163 120.32765,56.351626 C120.014846,56.6646357 119.649914,56.8211382 119.232842,56.8211382 L115.88139,56.8211382 C115.464319,56.8211382 115.099386,56.6646357 114.786583,56.351626 C114.473779,56.0386163 114.317379,55.6734438 114.317379,55.2560976 L114.317379,25.5650407 C114.317379,25.1476944 114.473779,24.7825219 114.786583,24.4695122 C115.099386,24.1565025 115.464319,24 115.88139,24 L119.232842,24 Z M156.435989,24 C156.853061,24 157.217993,24.1565025 157.530797,24.4695122 C157.8436,24.7825219 158,25.1476944 158,25.5650407 L158,55.2560976 C158,55.6734438 157.8436,56.0386163 157.530797,56.351626 C157.217993,56.6646357 156.853061,56.8211382 156.435989,56.8211382 L153.084537,56.8211382 C152.667466,56.8211382 152.302533,56.6646357 151.98973,56.351626 C151.676926,56.0386163 151.520526,55.6734438 151.520526,55.2560976 L151.520526,35.2235772 L143.298298,45.7764228 C143.000389,46.1639586 142.598219,46.3577236 142.091775,46.3577236 C141.585331,46.3577236 141.183161,46.1639586 140.885252,45.7764228 L132.48428,35.1788618 L132.48428,55.2560976 C132.48428,55.6734438 132.32788,56.0386163 132.015077,56.351626 C131.702273,56.6646357 131.337341,56.8211382 130.920269,56.8211382 L127.568817,56.8211382 C127.151745,56.8211382 126.786813,56.6646357 126.474009,56.351626 C126.161206,56.0386163 126.004806,55.6734438 126.004806,55.2560976 L126.004806,25.5650407 C126.004806,25.1476944 126.161206,24.7825219 126.474009,24.4695122 C126.786813,24.1565025 127.151745,24 127.568817,24 L131.456501,24 C131.962945,24 132.380011,24.20867 132.70771,24.6260163 L142.091775,37.0569106 L151.297096,24.6260163 C151.565214,24.20867 151.982279,24 152.548305,24 L156.435989,24 Z" id="lrd.im" fill="#232323"></path>
        </g>
    </g>
</svg>